<svg xmlns="http://www.w3.org/2000/svg" viewBox="0 0 900 500" role="img" aria-labelledby="title">
  <title id="title">Ilustrasi dasbor analitik</title>
  <rect width="900" height="500" fill="#ecfeff"/>
  <rect x="70" y="54" width="760" height="392" rx="18" fill="#fff" stroke="#a5f3fc" stroke-width="4"/>
  <rect x="70" y="54" width="190" height="392" rx="18" fill="#0f766e"/><rect x="105" y="100" width="120" height="18" rx="9" fill="#99f6e4"/><rect x="105" y="160" width="105" height="14" rx="7" fill="#ccfbf1"/><rect x="105" y="204" width="88" height="14" rx="7" fill="#5eead4"/><rect x="105" y="248" width="116" height="14" rx="7" fill="#5eead4"/>
  <rect x="310" y="95" width="190" height="102" rx="12" fill="#cffafe"/><rect x="530" y="95" width="240" height="102" rx="12" fill="#fef3c7"/>
  <rect x="310" y="230" width="460" height="160" rx="12" fill="#f8fafc" stroke="#e2e8f0"/>
  <path d="M345 344l72-52 64 25 72-70 80 38 78-86" fill="none" stroke="#0891b2" stroke-width="12" stroke-linecap="round" stroke-linejoin="round"/>
  <circle cx="417" cy="292" r="9" fill="#0891b2"/><circle cx="553" cy="247" r="9" fill="#0891b2"/><circle cx="633" cy="285" r="9" fill="#0891b2"/>
</svg>
