<svg xmlns="http://www.w3.org/2000/svg" viewBox="0 0 900 500" role="img" aria-labelledby="title">
  <title id="title">Ilustrasi platform e-commerce</title>
  <rect width="900" height="500" fill="#eff6ff"/>
  <rect x="70" y="58" width="760" height="384" rx="18" fill="#fff" stroke="#bfdbfe" stroke-width="4"/>
  <rect x="70" y="58" width="760" height="68" rx="18" fill="#2563eb"/>
  <circle cx="112" cy="92" r="12" fill="#dbeafe"/><circle cx="150" cy="92" r="12" fill="#dbeafe"/>
  <rect x="218" y="80" width="210" height="24" rx="12" fill="#dbeafe"/>
  <rect x="120" y="170" width="220" height="188" rx="12" fill="#dbeafe"/>
  <circle cx="230" cy="245" r="58" fill="#38bdf8"/><path d="M191 259h78l-10 42h-58Z" fill="#2563eb"/><path d="M199 259c0-43 62-43 62 0" fill="none" stroke="#fff" stroke-width="9"/>
  <rect x="390" y="174" width="330" height="22" rx="11" fill="#1e293b"/><rect x="390" y="216" width="260" height="16" rx="8" fill="#94a3b8"/><rect x="390" y="258" width="150" height="34" rx="17" fill="#2563eb"/>
  <rect x="390" y="322" width="110" height="14" rx="7" fill="#cbd5e1"/><rect x="520" y="322" width="110" height="14" rx="7" fill="#cbd5e1"/>
</svg>
